<?xml version="1.0" encoding="utf-8"?>
<!-- Generator: Adobe Illustrator 22.1.0, SVG Export Plug-In . SVG Version: 6.00 Build 0)  -->
<svg version="1.1" id="Layer_1" xmlns="http://www.w3.org/2000/svg" xmlns:xlink="http://www.w3.org/1999/xlink" x="0px" y="0px"
	 viewBox="0 0 512 512" style="enable-background:new 0 0 512 512;" xml:space="preserve">
<style type="text/css">
	.st0{fill:#6770E6;}
	.st1{fill:#5861C7;}
	.st2{fill:#FFEFE4;}
	.st3{fill:#D476E2;}
	.st4{fill:#EA82FA;}
	.st5{fill:#B665C2;}
	.st6{fill:#69EBFC;}
	.st7{fill:#FF8354;}
	.st8{fill:#333399;}
	.st9{fill:#E0734A;}
	.st10{fill:#FFAC8C;}
	.st11{fill:#382F8B;}
	.st12{fill:#C7FCFE;}
	.st13{fill:#EDD4C2;}
	.st14{fill:#8F95E6;}
	.st15{fill:#A1F1FC;}
	.st16{fill:#FFF7F2;}
	.st17{opacity:0.8;fill:#A1F1FC;}
	.st18{fill:#4C54AD;}
	.st19{fill:#5FD4E3;}
	.st20{fill:#FFE4D1;}
	.st21{fill:#5ED4E3;}
	.st22{fill:#56C1CF;}
	.st23{fill:#9FA5FF;}
	.st24{fill:#C46541;}
	.st25{fill:#FFCAB5;}
	.st26{fill:#5A62C9;}
	.st27{fill:#BABEFF;}
</style>
<g>
	<path id="XMLID_130_" class="st0" d="M503.285,450.75L8.721,450.757c-4.815,0-8.718-3.903-8.718-8.718l-0.004-315.612
		c0-4.815,3.903-8.718,8.718-8.718l494.564-0.007c4.815,0,8.718,3.903,8.718,8.718l0.004,315.612
		C512.003,446.846,508.1,450.75,503.285,450.75z"/>
	<path id="XMLID_129_" class="st8" d="M30.003,412.038l-0.003-255.612c0-4.815,3.903-8.718,8.718-8.718l434.564-0.006
		c4.815,0,8.718,3.903,8.718,8.718l0.003,255.612c0,4.815-3.903,8.718-8.718,8.718l-434.564,0.006
		C33.906,420.756,30.003,416.853,30.003,412.038z"/>
	<rect id="XMLID_128_" x="199.151" y="450.753" class="st1" width="113.704" height="39.282"/>
	<path id="XMLID_127_" class="st0" d="M341.878,511.998L170.13,512c-6.065,0-10.982-4.917-10.982-10.982v0
		c0-6.065,4.917-10.982,10.982-10.982l171.747-0.002c6.065,0,10.982,4.917,10.982,10.982v0
		C352.859,507.081,347.943,511.998,341.878,511.998z"/>
	<path id="XMLID_126_" class="st1" d="M341.877,501.998L170.13,502c-4.263,0-7.949-2.433-9.77-5.982
		c-0.77,1.501-1.212,3.197-1.212,5v0c0,6.065,4.917,10.982,10.982,10.982l171.747-0.002c6.065,0,10.982-4.917,10.982-10.982v0
		c0-1.803-0.443-3.499-1.212-5C349.827,499.564,346.14,501.998,341.877,501.998z"/>
	<path id="XMLID_125_" class="st16" d="M416.402,0H95.162c-7.277,0-13.176,5.899-13.176,13.176v407.58h347.592V13.176
		C429.578,5.899,423.678,0,416.402,0z"/>
	<path id="XMLID_124_" class="st3" d="M416.402,0H95.162c-7.277,0-13.176,5.899-13.176,13.176v21.523h347.592V13.176
		C429.578,5.899,423.678,0,416.402,0z"/>
	<path class="st4" d="M416.402,0H95.162c-7.277,0-13.176,5.899-13.176,13.176v16C81.986,21.899,87.885,16,95.162,16h321.24
		c7.277,0,13.176,5.899,13.176,13.176v-16C429.577,5.899,423.679,0,416.402,0z"/>
	<g>
		<path class="st1" d="M363.998,336.378h-36.889v-12h30.889v-30.889h12v36.889C369.998,333.691,367.311,336.378,363.998,336.378z"/>
	</g>
	<g>
		<path class="st1" d="M369.998,151.267h-12v-30.889h-30.889v-12h36.889c3.313,0,6,2.687,6,6V151.267z"/>
	</g>
	<g>
		<path class="st1" d="M153.998,151.267h-12v-36.889c0-3.313,2.687-6,6-6h36.889v12h-30.889V151.267z"/>
	</g>
	<g>
		<path class="st1" d="M184.887,336.378h-36.889c-3.313,0-6-2.687-6-6v-36.889h12v30.889h30.889V336.378z"/>
	</g>
	<path class="st1" d="M342.367,174.182c0-0.182-0.014-0.361-0.038-0.539c-0.008-0.06-0.024-0.118-0.035-0.177
		c-0.021-0.116-0.042-0.231-0.073-0.344c-0.019-0.069-0.044-0.135-0.067-0.203c-0.033-0.1-0.066-0.199-0.107-0.296
		c-0.029-0.069-0.064-0.135-0.097-0.203c-0.045-0.091-0.09-0.18-0.141-0.268c-0.039-0.066-0.081-0.128-0.123-0.192
		c-0.055-0.083-0.113-0.164-0.174-0.243c-0.047-0.061-0.097-0.119-0.148-0.176c-0.066-0.075-0.135-0.148-0.207-0.218
		c-0.055-0.054-0.111-0.106-0.17-0.157c-0.077-0.067-0.156-0.129-0.238-0.19c-0.062-0.046-0.123-0.091-0.188-0.134
		c-0.031-0.021-0.059-0.045-0.091-0.065c-0.06-0.037-0.124-0.065-0.186-0.099c-0.044-0.024-0.083-0.053-0.128-0.076l-82.37-41.184
		c-1.127-0.563-2.452-0.563-3.578,0l-82.37,41.186c-0.048,0.024-0.09,0.055-0.137,0.081c-0.059,0.032-0.12,0.059-0.177,0.094
		c-0.031,0.019-0.057,0.042-0.087,0.062c-0.068,0.045-0.133,0.092-0.197,0.14c-0.079,0.059-0.156,0.12-0.23,0.184
		c-0.06,0.052-0.118,0.106-0.175,0.162c-0.071,0.069-0.138,0.14-0.203,0.214c-0.051,0.058-0.101,0.117-0.149,0.178
		c-0.062,0.079-0.119,0.16-0.174,0.243c-0.042,0.063-0.085,0.126-0.123,0.192c-0.051,0.087-0.097,0.177-0.141,0.268
		c-0.033,0.067-0.067,0.133-0.097,0.202c-0.041,0.097-0.074,0.196-0.107,0.296c-0.022,0.068-0.048,0.134-0.067,0.202
		c-0.031,0.113-0.052,0.229-0.073,0.344c-0.011,0.059-0.026,0.117-0.034,0.177c-0.024,0.177-0.038,0.357-0.038,0.539l0.001,96.39
		c0,1.515,0.856,2.9,2.211,3.578l82.371,41.184c0.019,0.01,0.04,0.012,0.06,0.021c0.247,0.119,0.501,0.211,0.763,0.276
		c0.048,0.012,0.095,0.02,0.143,0.03c0.271,0.057,0.546,0.095,0.823,0.095c0.276,0,0.55-0.038,0.821-0.095
		c0.05-0.01,0.098-0.019,0.148-0.031c0.259-0.065,0.512-0.156,0.757-0.274c0.021-0.01,0.043-0.013,0.064-0.023l82.369-41.186
		c1.355-0.678,2.211-2.062,2.211-3.578L342.367,174.182z M216.812,157.063l31.055,15.528l-34.24,17.121l-31.056-15.528
		L216.812,157.063z M270.684,203.552l-14.687,7.344l-14.687-7.343l-18.739-9.369l34.24-17.12l33.424,16.713L270.684,203.552z
		 M177.627,180.656l32,16v43.056l-31.999-15.999L177.627,180.656z M217.627,200.656l34.371,17.185l0,24.169l0,18.887l-34.371-17.185
		V200.656z M251.998,269.841l0,35.445L217.627,288.1v-35.445L251.998,269.841z M259.998,242.01l0-24.169l20.553-10.277l13.541-6.771
		v43.056l-34.093,17.047L259.998,242.01z M302.091,196.793l32.275-16.138l0.001,43.055l-32.276,16.138V196.793z M299.18,189.304
		l-33.424-16.713l30.241-15.121l33.425,16.712L299.18,189.304z M255.997,137.47l31.056,15.528l-30.241,15.121l-31.055-15.528
		L255.997,137.47z M177.628,232.656l31.999,15.999v35.445l-31.999-15.999L177.628,232.656z M259.998,269.84l34.093-17.047v35.446
		l-34.092,17.047L259.998,269.84z M302.091,284.239v-35.446l32.276-16.139l0.001,35.446L302.091,284.239z"/>
	<circle class="st6" cx="357.998" cy="198" r="46"/>
	<path class="st3" d="M352.264,220.628c-1.93,0-3.873-0.626-5.503-1.915l-10.947-8.655c-3.847-3.042-4.5-8.627-1.458-12.474
		c3.042-3.847,8.626-4.5,12.474-1.458l4.082,3.228l16.875-20.71c3.099-3.802,8.692-4.373,12.494-1.275
		c3.802,3.098,4.373,8.692,1.275,12.494l-22.403,27.494C357.401,219.509,354.844,220.628,352.264,220.628z"/>
</g>
</svg>
