<svg id="Layer_1" data-name="Layer 1" xmlns="http://www.w3.org/2000/svg" viewBox="0 0 1121.32 872.53"><defs><style>.cls-1{fill:#d4d4f4;}.cls-2{fill:#fff;}.cls-3{fill:#bbbbea;}.cls-4{fill:#f0f0f9;}.cls-5{fill:#8080c1;}.cls-6{fill:#adadea;}.cls-7{fill:#dcdcef;}.cls-8{fill:#a3a3d8;}.cls-9{fill:#e6e9f8;}.cls-10{fill:#8888ba;}.cls-11{fill:#6b6b91;}.cls-12{opacity:0.1;}.cls-13{fill:#9f9fd1;}.cls-14{fill:#a8cfef;}.cls-15{fill:#79a7bc;}.cls-16{fill:#5492b5;}.cls-17{fill:#72594b;}.cls-18{fill:#393768;}.cls-19{fill:#002;}.cls-20{fill:#cce9f1;}.cls-21{fill:#a2a2f8;}.cls-22{fill:#8f8fe5;}.cls-23{fill:#edb6a4;}.cls-24{fill:#9f9fe2;}.cls-25{fill:#6060ad;}.cls-26{fill:#ed9b80;}.cls-27{fill:#f5e0cd;}.cls-28{fill:#b19177;}.cls-29{fill:#543e36;}</style></defs><g id="Model_Preparation" data-name="Model Preparation"><path class="cls-1" d="M1033.62,862.65c6.4-1.67,11.74-5.95,16.84-10.15,4.58-3.77,9.18-7.6,12.84-12.27,18.63-23.81,7.73-61,24.49-86.15s53.92-28.15,73.88-50.82c6.28-7.14,10.68-16.08,18.3-21.77a29.56,29.56,0,0,1,47.08,20.74c.34,3.46,0,7.21-2.16,9.94-2.37,3-6.35,4.14-10.12,4.75-7,1.13-14.24,1-21.28,2.12s-14.21,3.79-18.74,9.3c-5.52,6.72-6,16.31-4.49,24.87s4.78,16.78,5.85,25.41c.94,7.65-.88,17-8,20-3.16,1.32-6.71,1.07-10.13,1.2A44.87,44.87,0,0,0,1124.57,817c-5.55,7.22-8.78,16-14.4,23.19-7.22,9.22-18,15.15-29.19,18.55s-23,4.45-34.64,5.5Z" transform="translate(-194.1 -207.75)"/><path class="cls-2" d="M1033.64,864.1a2.57,2.57,0,0,1,.47-5.09c27.77-.25,55-18.17,66.21-43.58a147.57,147.57,0,0,0,5.37-14.93c1-3,1.94-6.07,3-9a133.29,133.29,0,0,1,60-70.49,2.57,2.57,0,1,1,2.5,4.5,128.23,128.23,0,0,0-57.68,67.73c-1,2.93-2,5.91-3,8.88a156.19,156.19,0,0,1-5.55,15.45c-12,27.2-41.15,46.36-70.89,46.62A2.15,2.15,0,0,1,1033.64,864.1Z" transform="translate(-194.1 -207.75)"/><path class="cls-3" d="M1036.72,920.48c1.13-6.51-.55-13.15-2.26-19.53-1.54-5.73-3.13-11.5-5.86-16.76-14-26.82-52.33-32.29-68.29-58S957,765.5,944.62,738c-3.9-8.68-10.21-16.38-12.23-25.68A29.55,29.55,0,0,1,970.74,678c3.3,1.12,6.57,3,8.16,6.09,1.76,3.39,1.15,7.49.14,11.17-1.89,6.88-5,13.37-6.88,20.25s-2.43,14.51.71,20.91c3.83,7.8,12.36,12.22,20.78,14.38s17.26,2.6,25.56,5.2c7.35,2.3,15.09,7.82,14.86,15.52-.1,3.42-1.8,6.55-3.1,9.72a44.93,44.93,0,0,0,1.86,37.57c4.28,8,11,14.62,15.16,22.7,5.41,10.39,6.35,22.65,4.8,34.25s-5.45,22.76-9.33,33.82Z" transform="translate(-194.1 -207.75)"/><path class="cls-4" d="M1038.06,921.06a2.57,2.57,0,0,1-4.45-2.53c11.27-25.38,6.23-57.6-12.26-78.31A146.73,146.73,0,0,0,1010,829.15c-2.36-2.13-4.71-4.27-7-6.5a133.22,133.22,0,0,1-39.33-83.79,2.57,2.57,0,1,1,5.12-.42A128.27,128.27,0,0,0,1006.57,819c2.24,2.17,4.56,4.26,6.86,6.36a160.27,160.27,0,0,1,11.77,11.44c19.8,22.19,25.17,56.66,13.1,83.84A2.34,2.34,0,0,1,1038.06,921.06Z" transform="translate(-194.1 -207.75)"/><path class="cls-5" d="M1035,874.46c7.32-5,12.84-48.11,18.53-42.17s14.27,33.55,2.5,46.08-18.17,19.35-15.48,43.64c1.3,12.16-4.11,4.52-8.3,2.16-.81-.42-2.75-3.8-5.34-9.09-10.05-8.22-16.71-7.27-27.42-6.08-12.77,1.5-26.24-18.25-27.45-25.11s27.84,11.4,34.09,9.07,1.92-6.85-6.44-8.75-50.65-3.5-64.84-39.92c-14.23-36.25,16.25-.7,39.12,9.62s37.14,18.39,23,7.29-44.68-19.4-54.28-33.34-26.75-37.22-7.47-27.48,52.34,46.17,59.27,46.52c1,0,1.59-.41,1.64-1.22a8.18,8.18,0,0,0-1.74-4.09c-3.72-6.2-13.5-16.12-21.85-21.49-12.78-8.26-31.65-21-28.66-28.5s10.19-10.24,24.73,10.28c9,12.5,15.44,20,20.53,26.18-4.44-13.11-4.68-26.38-12.88-55.27-8.35-29.45.18-35,9.82-33.06,9.66,1.79,7.05,30.5,4.73,49.65s3.47,49,8.72,41.4-4-67.29,2-94.39,14.94,6.81,20.87,26.49-10.42,57.88-11,80.35,3.06,1.93,11.3-29.32-2-87.85,22.06-48-8.09,85.79-13,95.88S1027.56,879.52,1035,874.46Z" transform="translate(-194.1 -207.75)"/><path class="cls-6" d="M996.08,845.68c-.65-1.44-1.15-2.78-1.74-4.09A8.18,8.18,0,0,1,996.08,845.68Z" transform="translate(-194.1 -207.75)"/><path class="cls-7" d="M999.78,777.63c-5.81-18.4-11.57-36.82-15.4-55.72-3.66-18.06-5.52-36.65-3.84-55.06,1.45-15.92,4-35.88,15.24-48.15,5.86-6.41,15.2-10.64,24-9.28s12.75,9.28,20.22,13.17c9.42,4.92,21.86-.7,27-10s4.27-20.9.84-31-9.19-19.14-13.78-28.74c-4.69-9.78-8.2-20.41-7.87-31.26s5-21.95,14-28.07,22.36-5.92,29.87,1.91c6.3,6.56,7.44,16.59,12.81,23.94,5.9,8.09,15.65,11.35,25.16,12.8,8.08,1.22,20.9,3.59,27.87-1.69,4.07-3.09,5.79-8.32,7.11-13.25,6-22.3,8.78-45.6,17.93-67,4.5-10.51,10.6-20.48,19.2-28.12,7.68-6.83,22-17.35,31.82-9.08,4.91,4.12,7,10.63,8.29,16.91a90.9,90.9,0,0,1-15.52,70.2c-10.15,13.92-24.61,25.48-29.44,42-7.47,25.53,11.85,49.41,8.8,75.2-.74,6.29-3.1,13.06-8.66,16.1-10.48,5.76-23-5.35-34.85-3.67-9.32,1.32-15.81,10.48-17.72,19.7s-.4,18.75-.11,28.16-1,19.57-7.2,26.61c-6.8,7.67-17.81,9.83-26.3,15.57-8.73,5.92-14.45,15.49-17.79,25.5s-4.54,20.59-6,31c-4.45,32-11.44,63.83-23.25,93.92-2.1,5.35-8.93,24.73-17.59,20.71-2.3-1.06-3.8-3.27-5.14-5.42-16.63-26.75-24.3-57.92-33.43-88.07C1004,790.91,1001.88,784.27,999.78,777.63Z" transform="translate(-194.1 -207.75)"/><path class="cls-2" d="M1209.76,456.05a2.49,2.49,0,0,0-3.52.43c-5.4,6.85-10.58,32.71-10.81,34.42-5.41,41.58-29.06,80.62-63.25,104.44-4.38,3.06-8.68,6-12.89,8.81-6,4-11.7,7.9-17.23,11.89a54.82,54.82,0,0,1-1-14.85c.24-6.24.52-12.69-1.53-19-3.41-10.39-10-19.56-15.78-27.68a2.5,2.5,0,1,0-4.06,2.93c5.85,8.19,11.9,16.65,15.06,26.32,1.78,5.41,1.55,11.16,1.3,17.22s-.26,12.31,1.61,18.36c-15.12,11.39-28.39,24.08-39,43.4a191.67,191.67,0,0,0-9,19.24,104.09,104.09,0,0,0-39-47,2.51,2.51,0,0,0-2.74,4.21,99.17,99.17,0,0,1,39.19,49.35,242,242,0,0,0-12,46.5c-.08.15-.19.3-.26.44a2.46,2.46,0,0,0-.11,2c-1.33,8.87-2.33,18-2.9,27.52-2.33,38.94,2.95,77.43,8,114.64.9,6.57,1.79,13.13,2.66,19.73a2.51,2.51,0,0,0,5-.66c-.87-6.6-1.76-13.17-2.67-19.75-5.3-38.68-10.3-75.21-8-113.67q.88-14.73,3-28.42c7.75-14.42,20.4-30.18,29.85-40.24,11-11.76,25.27-10.72,40.37-9.63,3.3.23,6.62.47,9.9.58a2.55,2.55,0,0,0,2.6-2.42,2.5,2.5,0,0,0-2.42-2.6c-3.24-.1-6.49-.32-9.73-.57-15.61-1.12-31.75-2.27-44.36,11.2a242.44,242.44,0,0,0-23.23,29.17c4.48-21.16,11-40.45,20.18-57.16,14.81-27,35.29-40.84,59-56.87,4.23-2.86,8.57-5.76,13-8.83.45-.31.84-.69,1.28-1a24.14,24.14,0,0,0,2.56.67c4.86.87,9.71.3,14.44-.24a58.17,58.17,0,0,1,10.32-.6c3,.25,7.25,1,10.58,3.64a2.52,2.52,0,0,0,3.13-3.94,23.58,23.58,0,0,0-13.38-4.7,63.42,63.42,0,0,0-11.23.62,54.84,54.84,0,0,1-10.9.23c31.56-24.87,53.33-62.5,58.55-102.59.42-3.14,5.64-26.75,9.77-32A2.51,2.51,0,0,0,1209.76,456.05Z" transform="translate(-194.1 -207.75)"/><path class="cls-8" d="M1056.16,873.76c-6-6.78-.69-50.6-7.77-46.18s-22.41,29.5-13.94,44.79,13.1,23.6,4.4,46.85c-4.31,11.66,2.93,5.48,7.64,4.2.91-.21,3.66-3,7.53-7.62,12-5.59,18.28-3,28.54.86,12.21,4.67,30.4-11.43,33.3-17.88s-30.28,4.28-35.85.42-.19-7.23,8.52-7,50.79,9.2,73.85-23.13c23-32.16-15.84-4.75-41-.29s-41.18,8.84-24.46,1.45,48.86-8,61.8-19.3,35.63-30,14.2-25.21-63.08,32.42-70,31c-1-.26-1.47-.79-1.32-1.61a8.42,8.42,0,0,1,2.73-3.6c5.21-5.17,17.32-12.5,26.89-15.71,14.65-4.94,36.42-12.8,35.34-20.92s-7.49-12.64-26.94,4c-11.93,10.08-20.18,15.82-26.74,20.66,7.64-11.8,11.17-24.82,26.45-51.23,15.56-26.93,8.53-34.55-1.45-35-10-.65-14.55,28.29-17,47.73-2.64,19.5-15.61,47.36-18.9,38.61s20.7-65.29,21.49-93.5-16.42,3-27.17,20.88-4.13,59.63-9.11,81.93-3.49,1.14-3.83-31.71,23.85-86.05-9.79-52.8-13.39,86.53-11,97.71S1062.2,880.6,1056.16,873.76Z" transform="translate(-194.1 -207.75)"/><path class="cls-6" d="M1101.65,855.12c1-1.25,1.82-2.45,2.73-3.6A8.42,8.42,0,0,0,1101.65,855.12Z" transform="translate(-194.1 -207.75)"/><path class="cls-4" d="M461.92,921.28c-222.29,0-344,73.7-215.39,85.12s332.61-9.79,278.74,13.88c-60,26.35-80,64.47,37.55,59.57s206.67-47.34,344.42-44.88c137.11,2.45,415.36-52.48,303.64-83.67s-239.2-60.77-406.09-57.55S461.92,921.28,461.92,921.28Z" transform="translate(-194.1 -207.75)"/><path class="cls-6" d="M227.27,227.94H822.87A27.15,27.15,0,0,1,850,255.09V648.75a0,0,0,0,1,0,0H200.12a0,0,0,0,1,0,0V255.09A27.15,27.15,0,0,1,227.27,227.94Z"/><rect class="cls-9" x="234.36" y="263.35" width="581.43" height="357.71" rx="13.14"/><path class="cls-10" d="M148.77,648.75H901.37a0,0,0,0,1,0,0v0a80.92,80.92,0,0,1-80.92,80.92H229.69a80.92,80.92,0,0,1-80.92-80.92v0A0,0,0,0,1,148.77,648.75Z"/><path class="cls-11" d="M429.15,648.75H621a0,0,0,0,1,0,0v0A37.24,37.24,0,0,1,583.75,686H466.39a37.24,37.24,0,0,1-37.24-37.24v0a0,0,0,0,1,0,0Z"/><circle class="cls-9" cx="521.21" cy="246.41" r="10.63"/><path class="cls-12" d="M1095.48,856.51a80.87,80.87,0,0,1-80.89,80.9H423.76a80.85,80.85,0,0,1-57.23-23.66c-.85-.85-1.7-1.7-2.48-2.62,6.8-1.63,14.31-2,21.32-2q279.75-.21,559.59-.35c21.32,0,43.7-.28,62.54-10.34,10.77-5.74,21.82-16.79,24.86-29a19.84,19.84,0,0,0-.7-12.9Z" transform="translate(-194.1 -207.75)"/><circle class="cls-13" cx="276.96" cy="293.47" r="9.14"/><circle class="cls-13" cx="303.19" cy="293.47" r="9.14"/><circle class="cls-13" cx="329.42" cy="293.47" r="9.14"/><path class="cls-14" d="M958.19,384c-1.62,0-3.23.15-4.85.3V384Z" transform="translate(-194.1 -207.75)"/><path class="cls-15" d="M721,384" transform="translate(-194.1 -207.75)"/><path class="cls-15" d="M772.73,435.72H669.42" transform="translate(-194.1 -207.75)"/><rect class="cls-9" x="604.6" y="336.15" width="55.11" height="55.11" rx="5.08"/><rect class="cls-9" x="604.6" y="415.27" width="55.11" height="55.11" rx="5.08"/><circle class="cls-16" cx="733.99" cy="522.55" r="28.17"/><path class="cls-12" d="M1113.81,631.73l7.2,11.91-23.07-9.55a21.76,21.76,0,0,1-5-2.94,3,3,0,0,1-1.17-1.18c-1.62-3.67-2.06-8.82-1.91-14.69,3.52-1.92,7.93-2.06,12.78-1.33l6.17,8.38,4-4.12,2.35,4.12Z" transform="translate(-194.1 -207.75)"/><path class="cls-12" d="M1223,667.15a19.06,19.06,0,0,1-13.37,3.53c.14.88.14,1.76.29,2.5a39.41,39.41,0,0,0,1.18,5.43c5.58,1,10.58,3.38,13.81,7.35.15.3.44.74.59,1L1191,672.73l.15-.29H1191l.88-2.5c-2.93-.44-5.43-1-7.49-2.5.29-7.93,1.47-15.28,4.41-21.89h-.15a36.51,36.51,0,0,1,1.91-3.24,7.88,7.88,0,0,1-2.2-1.61c-8.53-10.73,1.32-18.81,7.93-22.34,5-2.79,26.16.74,28.81,7.94s-1,9.4,4.11,9.84c5.88.44,5.44,15.73,1.91,18.52C1227.26,657.6,1228,663.62,1223,667.15Z" transform="translate(-194.1 -207.75)"/><path class="cls-17" d="M1267.53,926.12l10.12,3.44c2.3-1.54,4.23-1,6.16-.37l6.59,4.43-22.55,28.57-5.94-3.16,3.81-15.62-6-4.13Z" transform="translate(-194.1 -207.75)"/><path class="cls-18" d="M1283.11,927.87c3.31.12,5.79,2,9.13,5.48l-25.94,34.34c-4.16,5-8.13,4.29-6.6-1.3l5.36-22.79c2.25.13,4.54-.44,7-3.12a34.52,34.52,0,0,0,6-8.43c-1.37-1-2.59-2-1.56-4.16Z" transform="translate(-194.1 -207.75)"/><path class="cls-18" d="M1226.13,784.93l-34.77-9.58c-10.22,21.33-16.33,65.59-6.67,90.86,13.77,24,24.3,43.28,72.84,76.74l13.24-18.69-50.23-60.06C1226.23,833.54,1232.18,806.2,1226.13,784.93Z" transform="translate(-194.1 -207.75)"/><path class="cls-12" d="M1184.66,866.22c8.36,14.48,15.55,27.27,30.64,42.58-4.38-10-11.73-18.85-15.5-29.22-2.13-6-3.07-12.32-3.92-18.58-.54-4.2-1.08-8.41-.46-12.61,1-8.14,6.94-16.24,6.7-24.53-.22-7.63-11.12-8.6-16.87-6.65a18.5,18.5,0,0,0-4.69,2.43C1179,836.42,1179.9,853.65,1184.66,866.22Z" transform="translate(-194.1 -207.75)"/><path class="cls-17" d="M1177.89,955.58l5.54,8.95c2.78.25,3.89,1.9,5,3.56l2.18,7.51-36,7.95-2.51-6.13,13.15-9.65-1.92-6.91Z" transform="translate(-194.1 -207.75)"/><path class="cls-18" d="M1188.74,966.63c2.47,2.16,3.13,5.17,3.44,9.91l-42.41,10.28c-6.5,1.29-9.07-1.76-4.24-5.12l19-14.2c1.65,1.5,3.79,2.49,7.39,1.93a36,36,0,0,0,10.15-2.74c-.42-1.6-.68-3.17,1.51-4.18Z" transform="translate(-194.1 -207.75)"/><path class="cls-18" d="M1210.82,784.45l-42-17.32c-14.36,20-24.22,63.34-31.71,82.46-7.57,20.95,6.58,56.72,22.07,112.72l22.42-6.14-10-86.31C1189.7,839.66,1212.21,812.17,1210.82,784.45Z" transform="translate(-194.1 -207.75)"/><path class="cls-9" d="M1161.57,714.2c-.45,19,.66,50-2.25,62.35.48.79,1,1.49,1.58,2.3,13,17.22,69.84,22.28,68.59,13.88-9.15-61.57,5.12-80.82-14.93-114.61-9.65-12.38-35.57-9.3-44.93,3.31A79.63,79.63,0,0,0,1161.57,714.2Z" transform="translate(-194.1 -207.75)"/><path class="cls-17" d="M1200.81,670.69c-1.61-4.66-2.18-9.18-1.11-13.48l-16.09-2-5.51,17.62C1186.27,673.67,1193.92,673.16,1200.81,670.69Z" transform="translate(-194.1 -207.75)"/><path class="cls-12" d="M1161.57,714.2c-.45,19,.66,50-2.25,62.35.48.79,1,1.49,1.58,2.3,1.75-2.26,8.57-22.68,8-27.9-1.1-10.42,1.11-23.5,4.92-31.6s13.79-10.69,12.86-12.06c-5.65,5.26-6.22,1.29-24.41,4.88C1162.28,712.17,1162,712.87,1161.57,714.2Z" transform="translate(-194.1 -207.75)"/><path class="cls-17" d="M1197,693c-12.26,30.36-18,45.2-46,55.28-13.6,4.56-48.63-9.56-79.29-26.32l6.22-12.21,70.17,13.75c8.63-17.38,17.54-38.29,29-43.89Z" transform="translate(-194.1 -207.75)"/><path class="cls-9" d="M1175.35,677c-15.89,11.86-15.78,18.58-21.23,31,4.86,10.69,14.58,17.14,26.17,22l21.78-36Z" transform="translate(-194.1 -207.75)"/><path class="cls-12" d="M1200.79,670.67a22.07,22.07,0,0,1-2.3.7,10.18,10.18,0,0,1-2.59-2.39,6.2,6.2,0,0,0-2.08-2.17,5.43,5.43,0,0,0-2.59-.35,23.84,23.84,0,0,1-10.57-1.9l2.94-9.34,16.11,2C1198.63,661.54,1199.21,666,1200.79,670.67Z" transform="translate(-194.1 -207.75)"/><path class="cls-17" d="M1202.37,660.29c-11.85,2.65-22.22,3.56-28.3-.68.34-15.42,4.6-28.75,16.77-37.84l26.55,14.89Z" transform="translate(-194.1 -207.75)"/><path class="cls-12" d="M1196.84,636.69a21.71,21.71,0,0,1-5,7.65c-.43.5-1.15,1-1.72.57a1.12,1.12,0,0,1-.36-.64,5.73,5.73,0,0,1-.22-3.09,3,3,0,0,1,2.09-2.1,18.71,18.71,0,0,1-13.38-1.4,39.06,39.06,0,0,1,5.4-9.06,17.77,17.77,0,0,1,2.73,0A18.41,18.41,0,0,1,1195,631a4.73,4.73,0,0,1,2.23,2.45A4.66,4.66,0,0,1,1196.84,636.69Z" transform="translate(-194.1 -207.75)"/><path class="cls-19" d="M1177.92,632.8c3.8,3.91,9.33,4.53,15.66,3.75-1,3.72-2.41,7-4.34,8.2a2.6,2.6,0,0,0,1.47,2.39c2.26-1.94,4.56-4.44,6.24-3.59,2.07,2,2.32,3.68,1.58,6.17-1.1,3.08-5.65,5.35-10.15,7.94,3.58,3.18,6.21,5.19,9.4,5,4.38,1.11,9.68.15,14.82-3.4s4.26-9.49,8.15-12.42c3.48-2.77,4-18.12-1.85-18.49-5.29-.45-1.61-2.8-4.22-9.91s-23.72-10.66-28.77-8C1179.3,614,1169.45,622,1177.92,632.8Z" transform="translate(-194.1 -207.75)"/><path class="cls-17" d="M1071.68,722c-3.53,1.9-6.94,3.25-10,2.94-3.79-1.36-7.91-4.56-12.15-8.47,1-4,3.84-7.39,7.73-10.41l10.22,1.11-.38-5.75,4.75,1,6,7.33Z" transform="translate(-194.1 -207.75)"/><path class="cls-9" d="M307,466l-2.65-2.54,10.1-10.61,2.65,2.54Zm20.21-21.21-2.65-2.54,10.1-10.61,2.66,2.54Zm20.21-21.21L344.78,421l10.1-10.61,2.65,2.54Zm20.21-21.22L365,399.79l10.11-10.61,2.65,2.54Zm48.18-25.18-.59-3.63,14.46-2.35.59,3.63Zm28.92-4.69-.59-3.63,14.46-2.34.59,3.63Zm28.92-4.68-.59-3.63,14.46-2.35.59,3.63Z" transform="translate(-194.1 -207.75)"/><path class="cls-9" d="M493.12,343.16,482.79,330.7l2.83-2.34,10.32,12.46Zm-20.65-24.92-10.32-12.45,2.82-2.34,10.33,12.46Zm-20.64-24.91L441.5,280.87l2.83-2.34L454.66,291Zm-20.65-24.91L420.86,256l2.83-2.34L434,266.09Z" transform="translate(-194.1 -207.75)"/><path class="cls-9" d="M291.46,257l-.57-3.63,13.6-2.17.58,3.64Zm27.21-4.33L318.1,249l13.59-2.17.58,3.63Zm27.2-4.33-.57-3.63,13.6-2.17.58,3.63ZM373.08,244l-.57-3.63,13.6-2.17.58,3.63Z" transform="translate(-194.1 -207.75)"/><path class="cls-9" d="M251.92,455l-4.73-13.5,3.47-1.22,4.74,13.5Zm-9.48-27-4.73-13.5,3.47-1.22,4.74,13.5ZM233,401l-4.74-13.51,3.47-1.22,4.74,13.51Zm-1.33-27-3.47-1.22,4.74-13.5,3.47,1.22Zm9.49-27-3.47-1.22,4.74-13.5,3.47,1.22Zm9.49-27-3.47-1.22,4.74-13.5,3.48,1.22Zm9.5-27-3.48-1.22,4.75-13.5,3.47,1.22Z" transform="translate(-194.1 -207.75)"/><path class="cls-9" d="M350.85,381.62l-14.7-.12,0-3.68,14.69.13Zm-29.39-.24-14.69-.11,0-3.68,14.69.12Zm-29.39-.23L277.38,381l0-3.67,14.7.11Zm-29.39-.23L248,380.8l0-3.67,14.7.11Zm-32.76-8.11-2.15-3,11.91-8.61,2.15,3Zm23.82-17.22-2.15-3L263.5,344l2.15,3Zm141.85-12.45-3.6-.72L394.88,328l3.6.72Zm-118-4.77-2.15-3,11.9-8.61,2.16,3Zm23.82-17.22-2.16-3,11.92-8.61,2.15,3Zm100-6.83-3.6-.72,2.89-14.41,3.6.72Zm-76.18-10.39L323,301,335,292.35l2.15,3ZM349,286.71l-2.16-3,11.91-8.61,2.15,3Zm58.13-1.21-3.6-.72,2.89-14.4,3.6.71Zm-34.32-16-2.15-3,11.91-8.61,2.15,3Zm40.1-12.8-3.6-.72,2.89-14.41,3.6.72Zm-16.28-4.42-2.15-3,11.91-8.61,2.15,3Z" transform="translate(-194.1 -207.75)"/><path class="cls-9" d="M236.43,375.2H234a14,14,0,0,0-1.09-2.57l1.74-1.73a2.72,2.72,0,0,0,0-3.84l-3-3a2.7,2.7,0,0,0-3.84,0L226,365.76a13.85,13.85,0,0,0-2.56-1.08v-2.44a2.7,2.7,0,0,0-2.7-2.7h-4.3a2.7,2.7,0,0,0-2.73,2.7v2.44a15.45,15.45,0,0,0-2.56,1.08L209.47,364a2.73,2.73,0,0,0-3.87,0l-3,3a2.72,2.72,0,0,0,0,3.84l1.74,1.73a15.4,15.4,0,0,0-1.06,2.57h-2.44a2.71,2.71,0,0,0-2.72,2.7v4.3a2.72,2.72,0,0,0,2.72,2.72h2.44a17.38,17.38,0,0,0,1.06,2.57l-1.74,1.71a2.74,2.74,0,0,0,0,3.86l3,3a2.75,2.75,0,0,0,3.87,0l1.71-1.74a18.41,18.41,0,0,0,2.56,1.06v2.44a2.72,2.72,0,0,0,2.73,2.72h4.3a2.72,2.72,0,0,0,2.7-2.72v-2.44a16.19,16.19,0,0,0,2.56-1.06l1.74,1.74a2.72,2.72,0,0,0,3.84,0l3-3a2.74,2.74,0,0,0,0-3.86l-1.74-1.71a15.6,15.6,0,0,0,1.09-2.57h2.44a2.7,2.7,0,0,0,2.69-2.72v-4.3A2.69,2.69,0,0,0,236.43,375.2ZM218.62,389a8.95,8.95,0,1,1,8.94-8.94A8.93,8.93,0,0,1,218.62,389Z" transform="translate(-194.1 -207.75)"/><path class="cls-9" d="M424.71,233.52h-1.59a8.65,8.65,0,0,0-.71-1.68l1.14-1.13a1.77,1.77,0,0,0,0-2.5l-2-2a1.76,1.76,0,0,0-2.51,0l-1.13,1.13a9.21,9.21,0,0,0-1.67-.71v-1.59a1.76,1.76,0,0,0-1.76-1.76h-2.81a1.77,1.77,0,0,0-1.78,1.76v1.59a10.6,10.6,0,0,0-1.67.71l-1.12-1.13a1.77,1.77,0,0,0-2.52,0l-2,2a1.75,1.75,0,0,0,0,2.5l1.13,1.13a11,11,0,0,0-.7,1.68h-1.58a1.76,1.76,0,0,0-1.78,1.75v2.81a1.78,1.78,0,0,0,1.78,1.78h1.58a12.82,12.82,0,0,0,.7,1.67l-1.13,1.12a1.77,1.77,0,0,0,0,2.52l2,2a1.79,1.79,0,0,0,2.52,0l1.12-1.14a12.82,12.82,0,0,0,1.67.7v1.59a1.78,1.78,0,0,0,1.78,1.77h2.81a1.77,1.77,0,0,0,1.76-1.77v-1.59a10.86,10.86,0,0,0,1.67-.7l1.13,1.14a1.78,1.78,0,0,0,2.51,0l2-2a1.79,1.79,0,0,0,0-2.52l-1.14-1.12a9.74,9.74,0,0,0,.71-1.67h1.59a1.77,1.77,0,0,0,1.76-1.78v-2.81A1.75,1.75,0,0,0,424.71,233.52Zm-11.62,9a5.84,5.84,0,1,1,5.84-5.83A5.82,5.82,0,0,1,413.09,242.51Z" transform="translate(-194.1 -207.75)"/><path class="cls-9" d="M413.55,371.3h-3.73a21.37,21.37,0,0,0-1.66-3.92l2.65-2.66a4.12,4.12,0,0,0,0-5.86l-4.63-4.63a4.12,4.12,0,0,0-5.86,0l-2.66,2.65a21.37,21.37,0,0,0-3.92-1.66v-3.73a4.12,4.12,0,0,0-4.12-4.12h-6.57a4.13,4.13,0,0,0-4.16,4.12v3.73a23.64,23.64,0,0,0-3.92,1.66l-2.62-2.65a4.17,4.17,0,0,0-5.9,0l-4.64,4.63a4.14,4.14,0,0,0,0,5.86l2.66,2.66a24.45,24.45,0,0,0-1.63,3.92h-3.72a4.15,4.15,0,0,0-4.16,4.12V382a4.16,4.16,0,0,0,4.16,4.16h3.72a27.45,27.45,0,0,0,1.63,3.92l-2.66,2.62a4.19,4.19,0,0,0,0,5.9l4.64,4.64a4.19,4.19,0,0,0,5.9,0l2.62-2.66a27.45,27.45,0,0,0,3.92,1.63v3.72a4.16,4.16,0,0,0,4.16,4.16h6.57a4.15,4.15,0,0,0,4.12-4.16V402.2a24.45,24.45,0,0,0,3.92-1.63l2.66,2.66a4.14,4.14,0,0,0,5.86,0l4.63-4.64a4.17,4.17,0,0,0,0-5.9l-2.65-2.62a23.64,23.64,0,0,0,1.66-3.92h3.73a4.13,4.13,0,0,0,4.12-4.16v-6.57A4.12,4.12,0,0,0,413.55,371.3Zm-27.22,21.07A13.67,13.67,0,1,1,400,378.71,13.64,13.64,0,0,1,386.33,392.37Z" transform="translate(-194.1 -207.75)"/><path class="cls-20" d="M318.18,478a4.71,4.71,0,0,0-.4-1.81,2.12,2.12,0,0,0-.18-.37,3,3,0,0,0-1-1.2l-39-23.1a1.83,1.83,0,0,0-1-.29,1.92,1.92,0,0,0-1,.3l-38.65,23.72a3.11,3.11,0,0,0-1,1.22c-.06.13-.12.24-.17.37a4.65,4.65,0,0,0-.37,1.82l.37,46.85a5,5,0,0,0,.4,1.82c.06.13.11.24.18.36a2.94,2.94,0,0,0,1,1.2l39,23.1a1.86,1.86,0,0,0,1,.29,1.92,1.92,0,0,0,1-.3L317,528.29a3.09,3.09,0,0,0,1-1.22c.07-.13.12-.24.18-.37a4.84,4.84,0,0,0,.36-1.82Zm-77.67,6.17,29.8,17.64L240.8,520Zm72.84,35.17-29.79-17.64,29.51-18.11Zm-33.88-23.16-.29-35.74L309,478.1ZM274,460.51l.29,35.74-29.8-17.63Zm.38,46.85.28,35.74-29.79-17.63Zm5.44,35.7-.29-35.75L309.35,525Z" transform="translate(-194.1 -207.75)"/><path class="cls-20" d="M523.09,335.66a25,25,0,0,0-17.9-7.47,26.23,26.23,0,0,0-3.46.23,25.35,25.35,0,0,0-21.83,25.06v.39a25.26,25.26,0,0,0,46.72,12.92,25.2,25.2,0,0,0-3.53-31.13Zm3.23,20.67c0,.32-.12.62-.18.93-.11.62-.23,1.25-.4,1.86-.09.36-.23.7-.35,1.06-.18.54-.36,1.09-.59,1.62-.16.37-.34.72-.52,1.07s-.37.72-.57,1.07a17.35,17.35,0,0,1-2,.1,21,21,0,0,1-12.19-3.94,25.12,25.12,0,0,0,13.68-18,21.22,21.22,0,0,1,3.3,11.33A20.78,20.78,0,0,1,526.32,356.33ZM484,351.1c.07-.57.08-1.16.19-1.71.14-.71.38-1.38.58-2.06.17-.53.28-1.08.48-1.6a20.7,20.7,0,0,1,.93-1.89c.25-.49.46-1,.74-1.47s.82-1.15,1.24-1.71.62-.89,1-1.3a20,20,0,0,1,1.55-1.5c.38-.36.73-.75,1.14-1.08a22.26,22.26,0,0,1,1.89-1.27c.41-.26.8-.58,1.23-.81a19.33,19.33,0,0,1,2.33-1c.36-.14.69-.33,1.05-.46a24.92,24.92,0,0,0,3.71,25.26,21.71,21.71,0,0,1-3.64.32A21.23,21.23,0,0,1,483.86,353C483.88,352.38,484,351.74,484,351.1Zm16.36-8.39a21.09,21.09,0,0,1,2.75-10.47c.47,0,.93-.08,1.4-.09l.5,0,.58,0a22.67,22.67,0,0,1,3.21.32l.74.13c.18,0,.36.1.54.15a18.56,18.56,0,0,1,2.44.74l.83.31.49.21a20.1,20.1,0,0,1,2.7,1.46c.25.15.49.31.73.47l.09.07a21.9,21.9,0,0,1,2.36,2,21.22,21.22,0,0,1-13.55,19.29A21.23,21.23,0,0,1,500.4,342.71Zm4.79,32.1a21.42,21.42,0,0,1-20.63-16.25,25.09,25.09,0,0,0,13.88,4.16,24.36,24.36,0,0,0,6.77-1,25,25,0,0,0,15.59,6.2A21.42,21.42,0,0,1,505.19,374.81Z" transform="translate(-194.1 -207.75)"/><path class="cls-20" d="M316.36,228c-.05,0-.07-.11-.12-.14s-.36,0-.54-.1a3.24,3.24,0,0,0-.79-.28l-77.5-4.2c-.11,0-.21.06-.32.06a3.34,3.34,0,0,0-.63.12,3,3,0,0,0-.87.38c-.09.06-.21.06-.29.12s-.13.22-.23.32-.25.16-.34.29-.09.27-.16.4a2.82,2.82,0,0,0-.27.7,3,3,0,0,0-.06.85,3.71,3.71,0,0,0,0,.47l17.21,85.28c0,.14.14.23.19.36a2.69,2.69,0,0,0,.29.59,2.85,2.85,0,0,0,.78.84c.12.09.16.24.29.31s.19,0,.28.05.19.16.32.2a2.89,2.89,0,0,0,.88,0,2.81,2.81,0,0,0,.58,0,3.07,3.07,0,0,0,1.62-.8l54.22-54.23a3,3,0,0,0,.78-1.41s.05-.06.06-.1l6.05-26.86v0a3.07,3.07,0,0,0-.13-1.77l-.06-.08c-.07-.17-.23-.27-.33-.43A2.86,2.86,0,0,0,316.36,228Zm-59.07,57-2.66,11.8-7.57-37.48ZM242.9,232.23l45.88,19.94L261.66,279.3Zm11.34-1.82,53.41,2.89-14.16,14.17Zm5.59,71.52,3.51-15.56,31.54-31.55,8.41,3.66Zm46.66-48.81-6.9-3,9.78-9.79Z" transform="translate(-194.1 -207.75)"/></g><path class="cls-6" d="M863.17,638.46l5.37,30.86,4-402.11c0-21.86,19.92-39.64,44.4-39.64h224.93c24.48,0,44.39,17.78,44.39,39.64v36.86H1199V267.21c0-28.1-25.6-51-57.07-51H917c-31.47,0-57.08,22.86-57.08,51V638A1.68,1.68,0,0,0,863.17,638.46Z" transform="translate(-194.1 -207.75)"/><path class="cls-6" d="M866.22,838.05h130c31.48,0,57.08-22.87,57.08-51V440.46c0-21.86,19.91-39.63,44.39-39.63h22.78V389.5h-22.78c-31.47,0-57.07,22.87-57.07,51V787.09c0,21.86-19.92,39.64-44.4,39.64h-130Z" transform="translate(-194.1 -207.75)"/><path class="cls-21" d="M1131.24,439.39l162.9-5.35c7.21,0,13-5.21,13-11.64l8-103.5c0-6.43-13.81-14.83-21-14.83H1125.25c-7.2,0-13,5.21-13,11.64V422.4C1112.21,428.83,1124,439.39,1131.24,439.39Z" transform="translate(-194.1 -207.75)"/><rect class="cls-14" x="1120.45" y="309.59" width="194.98" height="129.97" rx="11.65" transform="translate(2241.77 541.41) rotate(180)"/><rect class="cls-9" x="931.67" y="113.51" width="144.18" height="106.64" rx="6.73"/><ellipse class="cls-18" cx="1096.27" cy="127.28" rx="7.9" ry="7.05"/><ellipse class="cls-18" cx="1096.27" cy="154.25" rx="7.9" ry="7.05"/><path class="cls-18" d="M1135.76,384.31a1,1,0,0,1,0-.35,1,1,0,0,1,0-.34s0-.08,0-.12.12-.12.18-.19.06-.16.13-.22l58.15-50.77.07,0a2.39,2.39,0,0,1,.22-.12,1.53,1.53,0,0,1,.41-.14s.07,0,.11,0,.11,0,.17,0a1.62,1.62,0,0,1,.22,0c.07,0,.12.06.19.08l.26.1a1.18,1.18,0,0,1,.32.26s.1.06.14.11l53,74.85a1,1,0,0,1,.08.24.86.86,0,0,1,.09.27,1.11,1.11,0,0,1,0,.4c0,.07,0,.14,0,.21l0,.05s0,0,0,.07a1.31,1.31,0,0,1-.3.27,1.29,1.29,0,0,1-.17.16,1.5,1.5,0,0,1-.73.2H1164a1.44,1.44,0,0,1-.58-.13.75.75,0,0,1-.15-.09,1.28,1.28,0,0,1-.23-.14l-27-24.07c-.07-.06-.08-.15-.13-.22s-.14-.11-.17-.18S1135.77,384.35,1135.76,384.31Zm86.61-1.05,18.1,16.16-35.59-50.25Zm-27.06-46.88L1176,382.75h43.11Zm-3.54,1.5-51.39,44.87h32.7Zm53.13,68.94-24.23-21.63H1175l-9,21.63Zm-81.45-1,8.61-20.64h-31.73Z" transform="translate(-194.1 -207.75)"/><rect class="cls-6" x="997.26" y="207.75" width="70.8" height="28.31" rx="14.15" transform="translate(1871.22 236.06) rotate(-180)"/><ellipse class="cls-22" cx="526.29" cy="555.82" rx="195" ry="63.04"/><ellipse class="cls-6" cx="526.29" cy="492.83" rx="275.39" ry="82.23"/><path class="cls-18" d="M548.56,646.07a3.18,3.18,0,0,1-.11-1.11,3,3,0,0,1,.12-1.08c0-.12,0-.24,0-.36s.38-.39.55-.61.2-.48.41-.67L732.72,482.33c.06-.06.16-.07.23-.12a5,5,0,0,1,.69-.37,4.63,4.63,0,0,1,1.29-.46c.13,0,.22-.11.35-.12s.34.08.51.08a4.41,4.41,0,0,1,.72,0,4.29,4.29,0,0,1,.59.24,4,4,0,0,1,.83.33,4.09,4.09,0,0,1,1,.8c.13.14.33.2.44.36L906.31,718.75a3.41,3.41,0,0,1,.26.76,3.35,3.35,0,0,1,.29.84,3.28,3.28,0,0,1-.14,1.28c-.05.21,0,.43-.07.64s-.11.1-.15.16,0,.15-.06.22a3.72,3.72,0,0,1-.94.87c-.2.16-.32.38-.55.51a4.65,4.65,0,0,1-2.28.61H637.49a4.69,4.69,0,0,1-1.82-.4,4.08,4.08,0,0,1-.5-.29,5.71,5.71,0,0,1-.72-.43L549.54,647.7c-.21-.19-.25-.46-.41-.67s-.42-.35-.53-.59S548.6,646.19,548.56,646.07Zm272.79-3.31,57,50.9L766.28,535.41ZM736.14,495.11l-60.86,146H811.06ZM725,499.83,563.14,641.14h103ZM892.28,717,816,648.83H672.08L643.69,717ZM635.8,713.85l27.09-65H563Z" transform="translate(-194.1 -207.75)"/><path class="cls-23" d="M1051.12,1025.59l3.27,6.58c2.45.46,2.84,1.31,4.6,3.19,2.15,2.59,3.35,4.08,3.91,6.66l-40.92,2.89,10.83-8.88,2.26-5.12Z" transform="translate(-194.1 -207.75)"/><path class="cls-24" d="M1032.18,1036.3c-7,5.23-15.81,3.91-20,9.34-2.83,3.39-2.76,8.26.87,10.46,8.84,1.46,34.59,1.78,51.49-6,5-2.36-2.72-15.55-6.83-17.49l-4.23-1.2c2.56,1.58,4.79,3,1.89,5.9-6.73,3.3-14.43,5.52-21.63,3.33C1033.08,1039,1034.38,1037.38,1032.18,1036.3Z" transform="translate(-194.1 -207.75)"/><path class="cls-20" d="M1058.35,1023.7c-8.36,5.56-19,8.29-31.33,8.8-13.63-34.78-42.41-95.07-43.94-109.64l2.25-71.23L987.67,820H1027c12.78,36.46-.92,72.06-6.18,96.38Z" transform="translate(-194.1 -207.75)"/><path class="cls-12" d="M989.62,911.11c-3,11-1.66,23.3,1.17,34.3.41,1.59.89,3.13,1.37,4.73-3.58-8.91-6.47-16.6-8-22-.21-.74-.35-1.42-.48-2a16.84,16.84,0,0,1-.62-3.26l2.27-71.22,1.44-19.85c1,.06,1.52.92,1.38,3-.69,15.85,12.94,32.81,8.26,49.71C993.4,895.44,992.57,900.18,989.62,911.11Z" transform="translate(-194.1 -207.75)"/><path class="cls-23" d="M949.07,1029.14l.28,7.19c2.08,1.25,2.09,2.17,2.94,4.5.9,3.12,1.4,4.9.83,7.47l-39.17-11,13.77-4.63,4.24-4Z" transform="translate(-194.1 -207.75)"/><path class="cls-20" d="M1001.63,824.46c0,32.26-19.83,82.9-40.08,105.43l-7.42,103.52c-11.91-.64-22.28-2.76-29.24-8.21l-2.06-101.87,19.52-99.88Z" transform="translate(-194.1 -207.75)"/><path class="cls-24" d="M927,1032.76c-8.7,2.52-16.3-1.64-22.45,2-4.05,2.2-6,6.73-3.56,10,7.59,4.3,31.34,13.18,50.28,11.57,5.67-.5,4-15.33,1-18.49l-3.42-2.53c1.71,2.31,3.2,4.35-.71,6.1-7.62.82-15.7.32-21.46-4.11C926.74,1035.54,928.61,1034.5,927,1032.76Z" transform="translate(-194.1 -207.75)"/><path class="cls-12" d="M806.41,671.13a25.31,25.31,0,0,1-3.15-9.88c0-.19.11-.29.22-.48.76-2,4-4.94,6.94-7.27a54.34,54.34,0,0,1-5.31-9.39,2.72,2.72,0,0,1,1.95-1.85c.65-.19,1.3-.38,2.28-.58a51.89,51.89,0,0,1,10.3,12.6,9.92,9.92,0,0,1,1.63-4.27c.22-.29.54-.67.76-1a3.39,3.39,0,0,1,3.69,1.74c.43,2.42.87,4.65,1.08,7v.1a54.42,54.42,0,0,1,.11,10.36l1.85,2.52c.21-.19.43-.19.65-.38l7.16,7.65,19.2,20.73.11.09L881.05,726l45-5.42a167.26,167.26,0,0,1,30-11.43c-.43-.1-.87,0-1.3-.1a28.08,28.08,0,0,0,.65-9.49c-8.9,1.26-16.38-.1-19.09-4.36-6.3-12.3-8.79-24.31-6.41-36.13a10.65,10.65,0,0,1-3.25-6.49,2.37,2.37,0,0,1-.11-.87c.35-5.61,17.21-18.67,17.51-14.28C973.74,650.84,975,682,975.86,699.7a6.53,6.53,0,0,1,.11,1.46c0,1.16-.11,2.23-.21,3.39a2.54,2.54,0,0,1-.22.87,6.49,6.49,0,0,1-.33,2,6.6,6.6,0,0,1-.65,2.13,2.77,2.77,0,0,1-.21,1,3.79,3.79,0,0,1-.44,1c-.22.68-.54,1.36-.87,2.13-.65,1.36-1.41,2.72-2.17,4.07s-1.73,2.62-2.71,4-2.17,2.62-3.36,3.88a46.16,46.16,0,0,1-3.91,3.87c-1.19,1.07-2.49,2.23-3.79,3.29-.22.2-.55.39-.76.59a51.51,51.51,0,0,1-4.78,3.48c-1.84,1.36-3.79,2.52-5.75,3.78h-.1c-1.85,1.16-3.59,2.23-5.54,3.29s-4.23,2.23-6.51,3.39-4.55,2.23-7,3.39c-.11,0-.11.1-.22.1-2.06.87-4.12,1.74-6.18,2.71-2.17.78-4.34,1.65-6.51,2.52-.43.2-1,.39-1.41.58a4.38,4.38,0,0,0-1.19.39c-2.5,1-5,1.84-7.6,2.71-2.82.87-5.64,1.84-8.57,2.81a.88.88,0,0,0-.54.2h-.22c-12.26-2.23-23.21-5-31.78-10.66-6.84-5.23-13.89-13.85-20.83-24.22-1.41-2.13-2.93-4.35-4.34-6.58-7.81-12.4-15.41-26.45-22.46-39.91a27.52,27.52,0,0,1-1.41-2.42c-.11-.29-.32-.58-.43-.87.65-.2,1.19-.49,1.84-.68l-1.52-2.81C810.53,673.45,807.93,672.39,806.41,671.13Z" transform="translate(-194.1 -207.75)"/><path class="cls-25" d="M1028.83,828.68c-22.58,14.62-50.59,14.93-82.48,5v-.06c-2.4-.69-4.8-1.45-7.27-2.33-5.57-19.34-6-49.26-3.81-84.41v-.19c.85-14.87,2.19-30.68,3.81-47,22.93-11.59,48.61-17.57,76.48-19.15C1045.48,698.41,1037.29,774.89,1028.83,828.68Z" transform="translate(-194.1 -207.75)"/><path class="cls-26" d="M967.88,688.22c9.34,1.69,20.71-.63,27.9-5.69-3.63-4.84-7-14.5-10.43-24.35l-18.57,3.3C968.27,672.09,969.57,682.44,967.88,688.22Z" transform="translate(-194.1 -207.75)"/><path class="cls-23" d="M949.42,674.34c4.48,7,21.63,6.27,37.09-1.14,4.41-2.13,8.53-13.24,13.52-23.93l-20.69-32-29.92,5C939,639.11,940.26,656.54,949.42,674.34Z" transform="translate(-194.1 -207.75)"/><path class="cls-27" d="M940.05,628.27c-2.82,11,12.93,16.72,19.39,17,6.72.28,9.76,5.5,8.3,10.34l2.19,1s.31-8,3.65-6.34,5.94,2,4.06,7.89-1.46,14.83,8.87,15,10.14-8.94,13.52-12,5.3-9.87,1.34-14a15.48,15.48,0,0,1-4.12-14c.94-4.56-4-15.37-8.76-16s-6.46.14-12.62-1.91-7.88-5.84-16.37-1.77C949.82,618.25,939,619,940.05,628.27Z" transform="translate(-194.1 -207.75)"/><path class="cls-23" d="M842.4,650.75l-14.22,6.38-1.86-3.39c-2.68-1.06-5.35-2.13-6.84-3.39a25.48,25.48,0,0,1-3.2-9.9c.44-2.06,4-5.25,7.22-7.71a52.25,52.25,0,0,1-5.29-9.43c.45-1.67,1.64-1.87,4.17-2.46a52.36,52.36,0,0,1,10.27,12.62,10.94,10.94,0,0,1,2.46-5.25,3.4,3.4,0,0,1,3.64,1.73A61.51,61.51,0,0,1,840,647.43Z" transform="translate(-194.1 -207.75)"/><path class="cls-25" d="M939.08,699.74l-45,5.43-51.63-55.6a52.48,52.48,0,0,1-16.55,7.6c15.21,28.72,32.75,61.33,49.49,74,15.71,10.3,39.42,11,63.65,16.34Z" transform="translate(-194.1 -207.75)"/><path class="cls-12" d="M943.1,791a54.3,54.3,0,0,0,3.25,42.71c-2.4-.69-4.8-1.45-7.27-2.33-5.57-19.34-6-49.26-3.81-84.41v-.19s18.13-15.31,21.87-16.13C953.76,731.36,950.3,769.66,943.1,791Z" transform="translate(-194.1 -207.75)"/><path class="cls-28" d="M438.29,1026l-16.76-2.43,9.09-113.16c-21.87-25.15-39-63-43.29-106.73l38.07-4.29c21.55,38.5,38,78.39,39.66,112.68C467.7,932.57,446.61,995.8,438.29,1026Z" transform="translate(-194.1 -207.75)"/><path class="cls-28" d="M422.12,1021.83l-3.5,10.32c-2.76.88-3.49,2.8-4.21,4.73L414,1045l38.46-.08,1.09-6.78-15.63-6.81.3-7.44Z" transform="translate(-194.1 -207.75)"/><path class="cls-14" d="M413.73,1035.47c-2,2.75-1.94,6-1.14,10.83l45.48.84c6.89-.17,8.78-3.84,3.08-6.15l-22.68-10.09c-1.32,1.89-3.25,3.37-7,3.62a37.71,37.71,0,0,1-10.94-.48c0-1.72-.07-3.36-2.53-3.9Z" transform="translate(-194.1 -207.75)"/><path class="cls-28" d="M362.93,1014.35l-15.35-7,36.71-108.27c-13.58-30.19-15.48-67.93-6.78-111l34.34,3.18c9.36,42.9,13.46,85.72,5,119C413.32,930.66,379.75,987.73,362.93,1014.35Z" transform="translate(-194.1 -207.75)"/><path class="cls-28" d="M348.66,1005.85l-6.39,8.91c-2.9.08-4.17,1.72-5.42,3.36l-2.79,7.65,36.87,10.64,3-6.19-13-10.89,2.48-7Z" transform="translate(-194.1 -207.75)"/><path class="cls-14" d="M336.61,1016.58c-2.71,2.08-3.6,5.17-4.26,10.06l43.33,13.48c6.66,1.76,9.54-1.23,4.75-5l-18.76-16c-1.83,1.44-4.11,2.33-7.81,1.5a37.48,37.48,0,0,1-10.35-3.51c.55-1.63.92-3.24-1.28-4.43Z" transform="translate(-194.1 -207.75)"/><path class="cls-18" d="M468.81,892.09c-19.52,25.89-56.37-3.43-91.61,2.62-5.33,2.66-15.17-57.75-4.13-83.77l68.88-4.1C451.51,822.85,461.32,866.56,468.81,892.09Z" transform="translate(-194.1 -207.75)"/><path class="cls-6" d="M454.13,825.76c-32.6,9.47-55.66,18.57-87,5.91-5.71-49.81,11.73-122.06,33-139.3,7.67-6.25,41.16-4.21,47.29,31.77C482.25,757.8,423.39,750,454.13,825.76Z" transform="translate(-194.1 -207.75)"/><path class="cls-28" d="M430.78,695.92c-8-6.45-3.61-11.56-2.09-21.15l-16.45-3.63c-1.23,9.29-3.77,12.66-8.36,19.3C408.06,699,430.42,702.51,430.78,695.92Z" transform="translate(-194.1 -207.75)"/><path class="cls-28" d="M432.43,681.7c-5.05,3.44-14.7.74-24.48-.83-6.53-11.13-12.57-22.26-7.81-33.39l31.38-12.11C441.71,645.44,438.58,674.24,432.43,681.7Z" transform="translate(-194.1 -207.75)"/><path class="cls-29" d="M441.1,648.34c-5.24,9.54-13.24,8.06-19.23,9.07s-9.28,12.3-4.54,21.17,10.86,28.43,1.55,33.06-13.4,5.53-17.74,22.06-23.73,25.1-32.83,24.1-14.68-22.37-6-34.06,17.37-10.58,13.65-26.66-8.68-24.75-1.86-33.82,15.51-5,17.78-18.75,11.8-28.63,25.45-22.18S426,629.59,437,631.2,444.18,642.72,441.1,648.34Z" transform="translate(-194.1 -207.75)"/><path class="cls-12" d="M440.68,812.74c4.27,6.68,1.2,13.45-1.48,17.42,4.76-1.35,9.72-2.9,14.88-4.35-17.76-43.84-5.55-59.71,1.1-71.81-16.68-8.52-42.09-16.65-42.09-16.65,1.64,14.87,11.81,15.49,17.37,26.71s0,9.1-4.07,17.81S434.13,802.48,440.68,812.74Z" transform="translate(-194.1 -207.75)"/><path class="cls-28" d="M431.46,714.41c-3.84,10.42-10.48,17.47-18.39,23,9.15,12.2,19.83,25.34,35.8,26.53,18.58,1.64,52.65-9.89,86.1-20.88l-6.05-15.79-70.86,13C447.41,731,444,724,431.46,714.41Z" transform="translate(-194.1 -207.75)"/><path class="cls-28" d="M528.92,727.26c.72-5,2.1-9.43,5-12.85,1-1.19,3-1.28,5.12-1.3,1.43.69-.62,5.73,0,8.77,3.61-1.33,8.84-8.77,10.55-7.47q5.34,3.21,5.06,8.83c.89,3.6.68,8,0,12.7a23,23,0,0,1-12.85,9.37c-3.1-.06-5.34-.84-6.8-2.26Z" transform="translate(-194.1 -207.75)"/></svg>